<svg xmlns="http://www.w3.org/2000/svg" id="Layer_1" data-name="Layer 1" width="512" height="512" class="hovered-paths"><path d="M215.255 230.108a43.184 43.184 0 10-43.184-43.184 43.233 43.233 0 0043.184 43.184zm0-70.368a27.184 27.184 0 11-27.184 27.184 27.215 27.215 0 0127.184-27.184zM454 338h-35v-35a8 8 0 00-16 0v35h-34a8 8 0 000 16h34v34a8 8 0 0016 0v-34h35a8 8 0 000-16z" data-original="#000000" class="hovered-path active-path" fill="#A5A5A5"/><path d="M472 273.129V121.724C472 95.256 450.209 74 423.741 74H54.753A47.608 47.608 0 007 121.724v241.105C7 389.3 28.286 411 54.753 411h290.886a93.6 93.6 0 00159.737-66.176c0-28.74-13.376-54.531-33.376-71.695zM54.753 90h368.988C441.386 90 456 104.079 456 121.724V262.3a93.081 93.081 0 00-44.119-11.016 95.1 95.1 0 00-10.46.581L334.4 204.411a8.021 8.021 0 00-10.249.822L233.827 294 128.85 242.84a7.764 7.764 0 00-7.4.271L23 300.284v-178.56A31.591 31.591 0 0154.753 90zM23 362.829v-44.048l102.791-59.691 95.983 46.894L131.231 395H54.753A31.973 31.973 0 0123 362.829zM154.057 395l176.521-173.58 49.888 35.3a93.737 93.737 0 00-62.21 88.17c0 18.4 5.344 35.112 14.557 50.112zm257.694 27.276a77.5 77.5 0 1177.5-77.495 77.583 77.583 0 01-77.5 77.495z" data-original="#000000" class="hovered-path active-path" fill="#A5A5A5"/></svg>