<svg version="1.1" id="Capa_1" xmlns="http://www.w3.org/2000/svg" x="0" y="0" viewBox="0 0 512 512" xml:space="preserve"><path d="M374.007 107.991H154.905l150.098-86.659c4.772-2.758 10.902-1.115 13.66 3.661l33.868 58.661c2.763 4.783 8.879 6.422 13.66 3.66 4.783-2.761 6.422-8.877 3.66-13.66l-33.868-58.661c-8.271-14.325-26.656-19.25-40.981-10.98L115.119 107.869c-.067.039-.126.084-.192.124H30.001c-16.543 0-30.001 13.458-30.001 30v344.006C0 498.542 13.458 512 30.001 512h344.006c16.542 0 30.001-13.458 30.001-30.001V137.993c-.001-16.543-13.459-30.002-30.001-30.002zm10 374.007c0 5.514-4.486 10-10 10H30.001c-5.514 0-10-4.486-10-10V137.992c0-5.514 4.486-10 10-10h344.006c5.514 0 10 4.486 10 10v344.006zm63.3-273.494c-1.861-1.86-4.44-2.93-7.07-2.93s-5.21 1.07-7.069 2.93a10.077 10.077 0 00-2.931 7.07c0 2.63 1.07 5.21 2.931 7.07a10.08 10.08 0 007.069 2.93c2.63 0 5.21-1.07 7.07-2.93 1.86-1.86 2.93-4.44 2.93-7.07s-1.069-5.21-2.93-7.07zm60.68 104.407l-41.376-71.665c-2.762-4.783-8.876-6.421-13.66-3.66-4.783 2.761-6.422 8.877-3.66 13.66l41.376 71.664c2.757 4.776 1.115 10.904-3.66 13.661l-64.312 37.13c-4.783 2.761-6.422 8.877-3.66 13.66a9.996 9.996 0 0013.66 3.66l64.312-37.13c14.324-8.27 19.25-26.653 10.98-40.98z"/><path d="M263.074 158.922a10.072 10.072 0 00-7.069-2.93c-2.63 0-5.21 1.07-7.07 2.93-1.86 1.86-2.93 4.44-2.93 7.07s1.069 5.21 2.93 7.07 4.44 2.93 7.07 2.93 5.21-1.07 7.069-2.93c1.86-1.86 2.931-4.44 2.931-7.07s-1.07-5.21-2.931-7.07z"/><path d="M346.006 155.992h-39.001c-5.522 0-10 4.477-10 10s4.478 10 10 10h29v142.573l-79.391-79.39a10.003 10.003 0 00-14.142 0l-52.978 52.978c-3.905 3.905-3.905 10.237 0 14.142 3.906 3.905 10.236 3.905 14.143 0l45.906-45.907 86.392 86.392c.023.023.048.042.071.064v49.152H82.145l72.597-72.597 53.93 53.93c3.906 3.905 10.236 3.905 14.143 0 3.905-3.905 3.905-10.237 0-14.143l-61.001-61.001a10.003 10.003 0 00-14.142 0l-79.67 79.67V175.992h134.002c5.522 0 10-4.477 10-10s-4.478-10-10-10H58.001c-5.522 0-10 4.477-10 10v240.004c0 5.523 4.478 10 10 10h288.005c5.522 0 10-4.477 10-10V165.992c0-5.522-4.478-10-10-10z"/><path d="M145.67 198.992c-17.645 0-32.001 14.355-32.001 32.001s14.355 32.001 32.001 32.001c17.645 0 32.001-14.355 32.001-32.001s-14.356-32.001-32.001-32.001zm0 44.001c-6.617 0-12-5.383-12-12s5.383-12 12-12 12 5.384 12 12c0 6.617-5.383 12-12 12z"/></svg>